<svg xmlns="http://www.w3.org/2000/svg" viewBox="0 0 64 80" x="0px" y="0px"><g><path d="M27.688,35A2.524,2.524,0,0,0,29,33h2a4.532,4.532,0,0,1-.571,2h3.142A4.532,4.532,0,0,1,33,33h1l1-.012A2.563,2.563,0,0,0,36.312,35h12.7a6.442,6.442,0,0,0,4.594-1.942l.006-.007a6.409,6.409,0,0,0,1.7-5.66c-.709-3.718-1.7-8.817-1.7-8.817a12.973,12.973,0,0,0-.672-2.23,7.231,7.231,0,0,1-.251,1.322l-.782,2.62L50,19.714l.782-2.62a5.422,5.422,0,0,0-1.81-5.739A6.107,6.107,0,0,0,43.641,10.2a7.012,7.012,0,1,1-7.593,3.132c-.3.024-.6.04-.9.04h-.126v-2h.126a8.85,8.85,0,0,0,5.98-2.285,1.024,1.024,0,0,1,.2-.144,7.971,7.971,0,0,1,1.9-.7A13.177,13.177,0,0,0,40.712,8H36.535l-1.7,2.555-1.664-1.11L34.132,8H29.868l.964,1.445-1.664,1.11L27.465,8H23.288a13.158,13.158,0,0,0-2.512.248,7.964,7.964,0,0,1,1.9.7,1.024,1.024,0,0,1,.2.144,8.85,8.85,0,0,0,5.98,2.285h.126v2h-.126c-.3,0-.6-.016-.9-.04A7,7,0,1,1,20.362,10.2a6.115,6.115,0,0,0-5.329,1.154,5.422,5.422,0,0,0-1.81,5.739l.782,2.62-1.916.572-.782-2.62a7.21,7.21,0,0,1-.251-1.32,13.092,13.092,0,0,0-.673,2.235S9.519,23.667,8.9,27.375a6.6,6.6,0,0,0,1.769,5.67A6.377,6.377,0,0,0,15.272,35Zm19.267-5.716c2.19,1.765,3.134,2.317,4.379,1.076a2.291,2.291,0,0,0,.661-1.8,3.643,3.643,0,0,0-1.351-2.528c-1.135-.889-2.02-.593-3.755.107l-.318.127-.74-1.857.31-.125c1.707-.689,3.641-1.468,5.737.174a5.645,5.645,0,0,1,2.113,3.984,4.283,4.283,0,0,1-1.245,3.338,3.756,3.756,0,0,1-2.692,1.26c-1.631,0-3.139-1.216-4.354-2.2-1.263-1.018-2.453-1.978-3.51-1.776L41.81,27.1C43.771,26.718,45.465,28.082,46.955,29.284ZM36.2,24c1.752,0,3.269,1.519,3.776,3.78l-1.952.438C37.731,26.912,36.981,26,36.2,26s-1.531.911-1.824,2.216l-1.951-.437C32.931,25.519,34.448,24,36.2,24Zm-8.4,0c1.752,0,3.269,1.518,3.775,3.779l-1.951.437C29.331,26.914,28.581,26,27.8,26s-1.531.912-1.824,2.218l-1.952-.438C24.531,25.522,26.048,24,27.8,24Zm14.106,7.882.465.187-.742,1.856-.465-.186a24.474,24.474,0,0,0-16.752-.492l-2.1.7-.632-1.9,2.095-.7A26.474,26.474,0,0,1,41.906,31.885Zm-30.652-.109a4.283,4.283,0,0,1-1.245-3.338,5.641,5.641,0,0,1,2.113-3.983c2.1-1.643,4.029-.863,5.737-.175l.31.125-.74,1.857-.318-.127c-1.735-.7-2.62-1-3.755-.107a3.643,3.643,0,0,0-1.351,2.528,2.291,2.291,0,0,0,.661,1.8c1.243,1.241,2.188.689,4.379-1.076,1.491-1.2,3.185-2.567,5.145-2.182l-.38,1.963c-1.054-.2-2.247.758-3.51,1.776-1.215.979-2.723,2.2-4.354,2.2A3.756,3.756,0,0,1,11.254,31.776Z"/><path d="M41,41a1,1,0,0,0-1,1v7.109a6.2,6.2,0,0,0,2-4.581V42A1,1,0,0,0,41,41Z"/><path d="M23,41a1,1,0,0,0-1,1v2.528a6.2,6.2,0,0,0,2,4.581V42A1,1,0,0,0,23,41Z"/><path d="M50,41a1,1,0,0,0-1,1v4.232A5.437,5.437,0,0,0,51,42,1,1,0,0,0,50,41Z"/><path d="M32,41a1,1,0,0,0-1,1v4.171a5.79,5.79,0,0,0,1,3.268,5.79,5.79,0,0,0,1-3.268V42A1,1,0,0,0,32,41Z"/><path d="M14,41a1,1,0,0,0-1,1,5.437,5.437,0,0,0,2,4.232V42A1,1,0,0,0,14,41Z"/><path d="M15.192,52.149,18.277,54H45.723l3.085-1.851A23.057,23.057,0,0,0,59.553,27.861L57.539,17.8A17.16,17.16,0,0,0,40.712,4H23.288A17.16,17.16,0,0,0,6.461,17.8L4.447,27.861A23.057,23.057,0,0,0,15.192,52.149ZM17,48a1,1,0,0,1-1.447.9l-.422-.211A7.432,7.432,0,0,1,11,42a3,3,0,0,1,6,0Zm9,3a1,1,0,0,1-1.447.9A8.192,8.192,0,0,1,20,44.528V42a3,3,0,0,1,6,0Zm9-4.829a7.777,7.777,0,0,1-2.293,5.536,1,1,0,0,1-1.414,0A7.777,7.777,0,0,1,29,46.171V42a3,3,0,0,1,6,0Zm9-1.643A8.192,8.192,0,0,1,39.447,51.9,1,1,0,0,1,38,51V42a3,3,0,0,1,6,0Zm4.869,4.156-.422.211A1,1,0,0,1,47,48V42a3,3,0,0,1,6,0A7.432,7.432,0,0,1,48.869,48.684ZM6.923,27.043c.625-3.72,1.493-8.826,1.493-8.826A15.159,15.159,0,0,1,23.288,6H40.712A15.158,15.158,0,0,1,55.578,18.188c0,.006.989,5.108,1.7,8.829a8.41,8.41,0,0,1-2.23,7.429h0A8.462,8.462,0,0,1,49.012,37H15.272a8.362,8.362,0,0,1-6.041-2.561A8.607,8.607,0,0,1,6.923,27.043Z"/><circle cx="42" cy="16.999" r="5"/><path d="M22,22a5,5,0,1,0-5-5A5.006,5.006,0,0,0,22,22Zm0-8a3,3,0,1,1-3,3A3,3,0,0,1,22,14Z"/><rect x="19" y="56" width="26" height="4"/><circle cx="22" cy="17" r="1"/></g><text x="0" y="79" fill="#000000" font-size="5px" font-weight="bold" font-family="'Helvetica Neue', Helvetica, Arial-Unicode, Arial, Sans-serif">Created by monkik</text><text x="0" y="84" fill="#000000" font-size="5px" font-weight="bold" font-family="'Helvetica Neue', Helvetica, Arial-Unicode, Arial, Sans-serif">from the Noun Project</text></svg>